<mxfile host="65bd71144e" modified="2020-10-30T12:08:38.442Z" agent="5.0 (Windows NT 10.0; Win64; x64) AppleWebKit/537.36 (KHTML, like Gecko) Code/1.50.1 Chrome/83.0.4103.122 Electron/9.2.1 Safari/537.36" etag="ukk-BY9RAVFzYGf0WNpC" version="13.6.5">
    <diagram name="Page-1" id="2c0d36ab-eaac-3732-788b-9136903baeff">
        <mxGraphModel dx="1893" dy="1252" grid="1" gridSize="10" guides="1" tooltips="1" connect="1" arrows="1" fold="1" page="1" pageScale="1.5" pageWidth="1169" pageHeight="827" background="#ffffff" math="0" shadow="0">
            <root>
                <mxCell id="0"/>
                <mxCell id="1" parent="0"/>
                <mxCell id="2" value="Stolarz" style="rounded=1;fillColor=#23445D;gradientColor=none;strokeColor=none;fontColor=#FFFFFF;fontStyle=1;fontFamily=Tahoma;fontSize=14" parent="1" vertex="1">
                    <mxGeometry x="782" y="185.5" width="190" height="80" as="geometry"/>
                </mxCell>
                <mxCell id="12" value="Lista zakupów" style="rounded=1;fillColor=#23445D;gradientColor=none;strokeColor=none;fontColor=#FFFFFF;fontStyle=1;fontFamily=Tahoma;fontSize=14" parent="1" vertex="1">
                    <mxGeometry x="599.9999999999999" y="335.5" width="190" height="80" as="geometry"/>
                </mxCell>
                <mxCell id="13" value="Zlecenia" style="rounded=1;fillColor=#23445D;gradientColor=none;strokeColor=none;fontColor=#FFFFFF;fontStyle=1;fontFamily=Tahoma;fontSize=14" parent="1" vertex="1">
                    <mxGeometry x="107" y="335.5" width="190" height="80" as="geometry"/>
                </mxCell>
                <mxCell id="16" value="Wprowadzenie danych zlecenia" style="rounded=1;fillColor=#23445D;gradientColor=none;strokeColor=none;fontColor=#FFFFFF;fontStyle=1;fontFamily=Tahoma;fontSize=14" parent="1" vertex="1">
                    <mxGeometry x="235" y="440" width="263" height="60" as="geometry"/>
                </mxCell>
                <mxCell id="20" value="Usuwanie danych zlecenia" style="rounded=1;fillColor=#23445D;gradientColor=none;strokeColor=none;fontColor=#FFFFFF;fontStyle=1;fontFamily=Tahoma;fontSize=14" parent="1" vertex="1">
                    <mxGeometry x="235" y="574.5" width="263" height="60" as="geometry"/>
                </mxCell>
                <mxCell id="33" value="Stworzenie listy zakupów" style="rounded=1;fillColor=#23445D;gradientColor=none;strokeColor=none;fontColor=#FFFFFF;fontStyle=1;fontFamily=Tahoma;fontSize=14" parent="1" vertex="1">
                    <mxGeometry x="720" y="440" width="210" height="60" as="geometry"/>
                </mxCell>
                <mxCell id="34" value="Odznaczanie zakupionych materiałów" style="rounded=1;fillColor=#23445D;gradientColor=none;strokeColor=none;fontColor=#FFFFFF;fontStyle=1;fontFamily=Tahoma;fontSize=14" parent="1" vertex="1">
                    <mxGeometry x="820" y="530" width="290" height="60" as="geometry"/>
                </mxCell>
                <mxCell id="59" value="" style="edgeStyle=elbowEdgeStyle;elbow=vertical;strokeWidth=2;rounded=0" parent="1" source="2" target="12" edge="1">
                    <mxGeometry x="347" y="225.5" width="100" height="100" as="geometry">
                        <mxPoint x="861.9999999999999" y="275.5" as="sourcePoint"/>
                        <mxPoint x="1466.9999999999998" y="345.5" as="targetPoint"/>
                    </mxGeometry>
                </mxCell>
                <mxCell id="61" value="" style="edgeStyle=elbowEdgeStyle;elbow=vertical;strokeWidth=2;rounded=0" parent="1" source="2" target="13" edge="1">
                    <mxGeometry x="-23" y="135.5" width="100" height="100" as="geometry">
                        <mxPoint x="-23" y="235.5" as="sourcePoint"/>
                        <mxPoint x="77" y="135.5" as="targetPoint"/>
                    </mxGeometry>
                </mxCell>
                <mxCell id="64" value="" style="edgeStyle=elbowEdgeStyle;elbow=horizontal;strokeWidth=2;rounded=0" parent="1" source="13" target="16" edge="1">
                    <mxGeometry x="-23" y="135.5" width="100" height="100" as="geometry">
                        <mxPoint x="-23" y="235.5" as="sourcePoint"/>
                        <mxPoint x="77" y="135.5" as="targetPoint"/>
                        <Array as="points">
                            <mxPoint x="202" y="435.5"/>
                        </Array>
                    </mxGeometry>
                </mxCell>
                <mxCell id="67" value="" style="edgeStyle=elbowEdgeStyle;elbow=horizontal;strokeWidth=2;rounded=0;entryX=0;entryY=0.5;entryDx=0;entryDy=0;" parent="1" source="13" target="138" edge="1">
                    <mxGeometry x="-23" y="135.5" width="100" height="100" as="geometry">
                        <mxPoint x="-23" y="235.5" as="sourcePoint"/>
                        <mxPoint x="237.00000000000023" y="725.4999999999998" as="targetPoint"/>
                        <Array as="points">
                            <mxPoint x="200" y="680"/>
                            <mxPoint x="190" y="680"/>
                            <mxPoint x="220" y="750"/>
                            <mxPoint x="202" y="575.5"/>
                        </Array>
                    </mxGeometry>
                </mxCell>
                <mxCell id="68" value="" style="edgeStyle=elbowEdgeStyle;elbow=horizontal;strokeWidth=2;rounded=0;entryX=0;entryY=0.5;entryDx=0;entryDy=0;" parent="1" source="13" target="20" edge="1">
                    <mxGeometry x="-23" y="135.5" width="100" height="100" as="geometry">
                        <mxPoint x="-23" y="235.5" as="sourcePoint"/>
                        <mxPoint x="77" y="135.5" as="targetPoint"/>
                        <Array as="points">
                            <mxPoint x="202" y="590"/>
                        </Array>
                    </mxGeometry>
                </mxCell>
                <mxCell id="76" value="" style="edgeStyle=elbowEdgeStyle;elbow=horizontal;strokeWidth=2;rounded=0;exitX=0.25;exitY=1;exitDx=0;exitDy=0;" parent="1" source="33" target="34" edge="1">
                    <mxGeometry x="-80" y="120" width="100" height="100" as="geometry">
                        <mxPoint x="-80" y="220" as="sourcePoint"/>
                        <mxPoint x="20" y="120" as="targetPoint"/>
                        <Array as="points">
                            <mxPoint x="770" y="560"/>
                        </Array>
                    </mxGeometry>
                </mxCell>
                <mxCell id="102" value="" style="edgeStyle=elbowEdgeStyle;elbow=vertical;strokeWidth=2;rounded=0;exitX=0.5;exitY=1;exitDx=0;exitDy=0;entryX=0;entryY=0.5;entryDx=0;entryDy=0;" parent="1" source="12" target="33" edge="1">
                    <mxGeometry x="-23" y="135.5" width="100" height="100" as="geometry">
                        <mxPoint x="640" y="460" as="sourcePoint"/>
                        <mxPoint x="620" y="500" as="targetPoint"/>
                        <Array as="points">
                            <mxPoint x="700" y="470"/>
                            <mxPoint x="695" y="470"/>
                        </Array>
                    </mxGeometry>
                </mxCell>
                <mxCell id="126" value="" style="edgeStyle=elbowEdgeStyle;elbow=horizontal;strokeWidth=2;rounded=0;entryX=0;entryY=0.5;entryDx=0;entryDy=0;exitX=0.25;exitY=1;exitDx=0;exitDy=0;" edge="1" parent="1" source="171" target="139">
                    <mxGeometry x="-83" y="430" width="100" height="100" as="geometry">
                        <mxPoint x="209.5" y="900" as="sourcePoint"/>
                        <mxPoint x="237" y="740" as="targetPoint"/>
                        <Array as="points">
                            <mxPoint x="310" y="830"/>
                            <mxPoint x="202" y="720"/>
                            <mxPoint x="202" y="820"/>
                            <mxPoint x="202" y="900"/>
                            <mxPoint x="210" y="934.5"/>
                            <mxPoint x="142" y="820"/>
                        </Array>
                    </mxGeometry>
                </mxCell>
                <mxCell id="127" value="" style="edgeStyle=elbowEdgeStyle;elbow=vertical;strokeWidth=2;rounded=0;exitX=0.5;exitY=1;exitDx=0;exitDy=0;entryX=0.5;entryY=0;entryDx=0;entryDy=0;" edge="1" parent="1" source="2" target="128">
                    <mxGeometry x="582" y="215.5" width="100" height="100" as="geometry">
                        <mxPoint x="940" y="265.5" as="sourcePoint"/>
                        <mxPoint x="1315" y="335.5" as="targetPoint"/>
                    </mxGeometry>
                </mxCell>
                <mxCell id="128" value="Finanse" style="rounded=1;fillColor=#23445D;gradientColor=none;strokeColor=none;fontColor=#FFFFFF;fontStyle=1;fontFamily=Tahoma;fontSize=14" vertex="1" parent="1">
                    <mxGeometry x="980" y="335.5" width="213" height="80" as="geometry"/>
                </mxCell>
                <mxCell id="129" value="Sumowanie wszystkich paragonów " style="rounded=1;fillColor=#23445D;gradientColor=none;strokeColor=none;fontColor=#FFFFFF;fontStyle=1;fontFamily=Tahoma;fontSize=14" vertex="1" parent="1">
                    <mxGeometry x="1210" y="515.5" width="260" height="60" as="geometry"/>
                </mxCell>
                <mxCell id="131" value="Wyliczenie zysku" style="rounded=1;fillColor=#23445D;gradientColor=none;strokeColor=none;fontColor=#FFFFFF;fontStyle=1;fontFamily=Tahoma;fontSize=14" vertex="1" parent="1">
                    <mxGeometry x="1070" y="440" width="230" height="60" as="geometry"/>
                </mxCell>
                <mxCell id="133" value="" style="edgeStyle=elbowEdgeStyle;elbow=horizontal;strokeWidth=2;rounded=0;exitX=0.5;exitY=1;exitDx=0;exitDy=0;entryX=0;entryY=0.5;entryDx=0;entryDy=0;" edge="1" parent="1" source="128" target="131">
                    <mxGeometry x="116.5" y="135.5" width="100" height="100" as="geometry">
                        <mxPoint x="116.5" y="235.5" as="sourcePoint"/>
                        <mxPoint x="216.5" y="135.5" as="targetPoint"/>
                        <Array as="points">
                            <mxPoint x="1030" y="440"/>
                            <mxPoint x="1087" y="480"/>
                            <mxPoint x="1096.5" y="585.5"/>
                        </Array>
                    </mxGeometry>
                </mxCell>
                <mxCell id="136" value="" style="edgeStyle=elbowEdgeStyle;elbow=horizontal;strokeWidth=2;rounded=0;exitX=0.5;exitY=1;exitDx=0;exitDy=0;entryX=0;entryY=0.5;entryDx=0;entryDy=0;" edge="1" parent="1" source="131" target="129">
                    <mxGeometry x="126.5" y="145.5" width="100" height="100" as="geometry">
                        <mxPoint x="1096.5" y="425.5" as="sourcePoint"/>
                        <mxPoint x="1126.5" y="675.5" as="targetPoint"/>
                        <Array as="points">
                            <mxPoint x="1180" y="520"/>
                            <mxPoint x="1210" y="680"/>
                            <mxPoint x="1106.5" y="595.5"/>
                        </Array>
                    </mxGeometry>
                </mxCell>
                <mxCell id="138" value="Edycja danch zlecenia" style="rounded=1;fillColor=#23445D;gradientColor=none;strokeColor=none;fontColor=#FFFFFF;fontStyle=1;fontFamily=Tahoma;fontSize=14" vertex="1" parent="1">
                    <mxGeometry x="235" y="659" width="263" height="60" as="geometry"/>
                </mxCell>
                <mxCell id="139" value="Wyświetlanie danych zlecenia" style="rounded=1;fillColor=#23445D;gradientColor=none;strokeColor=none;fontColor=#FFFFFF;fontStyle=1;fontFamily=Tahoma;fontSize=14" vertex="1" parent="1">
                    <mxGeometry x="337" y="820" width="263" height="60" as="geometry"/>
                </mxCell>
                <mxCell id="140" value="Przypominanie o zleceniach" style="rounded=1;fillColor=#23445D;gradientColor=none;strokeColor=none;fontColor=#FFFFFF;fontStyle=1;fontFamily=Tahoma;fontSize=14" vertex="1" parent="1">
                    <mxGeometry x="340" y="910" width="263" height="60" as="geometry"/>
                </mxCell>
                <mxCell id="141" value="" style="edgeStyle=elbowEdgeStyle;elbow=horizontal;strokeWidth=2;rounded=0;entryX=0;entryY=0.5;entryDx=0;entryDy=0;exitX=0.25;exitY=1;exitDx=0;exitDy=0;" edge="1" parent="1" source="171" target="140">
                    <mxGeometry x="-85" y="496.75" width="100" height="100" as="geometry">
                        <mxPoint x="200.00000000000023" y="482.2499999999998" as="sourcePoint"/>
                        <mxPoint x="235" y="806.5" as="targetPoint"/>
                        <Array as="points">
                            <mxPoint x="310" y="870"/>
                            <mxPoint x="200" y="886.75"/>
                            <mxPoint x="200" y="966.75"/>
                            <mxPoint x="208" y="1001.25"/>
                            <mxPoint x="140" y="886.75"/>
                        </Array>
                    </mxGeometry>
                </mxCell>
                <mxCell id="143" value="Zarządzanie Klientami" style="rounded=1;fillColor=#23445D;gradientColor=none;strokeColor=none;fontColor=#FFFFFF;fontStyle=1;fontFamily=Tahoma;fontSize=14" vertex="1" parent="1">
                    <mxGeometry x="1430" y="335.5" width="213" height="80" as="geometry"/>
                </mxCell>
                <mxCell id="144" value="" style="edgeStyle=elbowEdgeStyle;elbow=vertical;strokeWidth=2;rounded=0;exitX=0.5;exitY=1;exitDx=0;exitDy=0;entryX=0.5;entryY=0;entryDx=0;entryDy=0;" edge="1" parent="1" source="2">
                    <mxGeometry x="1037" y="215.5" width="100" height="100" as="geometry">
                        <mxPoint x="1150" y="265.5" as="sourcePoint"/>
                        <mxPoint x="1541.5" y="335.5" as="targetPoint"/>
                    </mxGeometry>
                </mxCell>
                <mxCell id="147" value="Dodawanie Klienta" style="rounded=1;fillColor=#23445D;gradientColor=none;strokeColor=none;fontColor=#FFFFFF;fontStyle=1;fontFamily=Tahoma;fontSize=14" vertex="1" parent="1">
                    <mxGeometry x="1580" y="455.5" width="260" height="60" as="geometry"/>
                </mxCell>
                <mxCell id="148" value="Usuwanie Klienta" style="rounded=1;fillColor=#23445D;gradientColor=none;strokeColor=none;fontColor=#FFFFFF;fontStyle=1;fontFamily=Tahoma;fontSize=14" vertex="1" parent="1">
                    <mxGeometry x="1580" y="574.5" width="260" height="60" as="geometry"/>
                </mxCell>
                <mxCell id="149" value="Edycja Klienta" style="rounded=1;fillColor=#23445D;gradientColor=none;strokeColor=none;fontColor=#FFFFFF;fontStyle=1;fontFamily=Tahoma;fontSize=14" vertex="1" parent="1">
                    <mxGeometry x="1580" y="654.5" width="260" height="60" as="geometry"/>
                </mxCell>
                <mxCell id="151" value="" style="edgeStyle=elbowEdgeStyle;elbow=horizontal;strokeWidth=2;rounded=0;exitX=0.5;exitY=1;exitDx=0;exitDy=0;entryX=0;entryY=0.5;entryDx=0;entryDy=0;" edge="1" parent="1" source="143" target="147">
                    <mxGeometry x="590" y="145.5" width="100" height="100" as="geometry">
                        <mxPoint x="1550" y="415.4999999999998" as="sourcePoint"/>
                        <mxPoint x="1580" y="486" as="targetPoint"/>
                        <Array as="points">
                            <mxPoint x="1537" y="460"/>
                            <mxPoint x="1570" y="595.5"/>
                        </Array>
                    </mxGeometry>
                </mxCell>
                <mxCell id="152" value="" style="edgeStyle=elbowEdgeStyle;elbow=horizontal;strokeWidth=2;rounded=0;exitX=0.5;exitY=1;exitDx=0;exitDy=0;entryX=0;entryY=0.5;entryDx=0;entryDy=0;" edge="1" parent="1" source="143" target="148">
                    <mxGeometry x="600" y="155.5" width="100" height="100" as="geometry">
                        <mxPoint x="1560" y="425.4999999999998" as="sourcePoint"/>
                        <mxPoint x="1590" y="495.5000000000002" as="targetPoint"/>
                        <Array as="points">
                            <mxPoint x="1537" y="460"/>
                            <mxPoint x="1560" y="560"/>
                            <mxPoint x="1580" y="605.5"/>
                        </Array>
                    </mxGeometry>
                </mxCell>
                <mxCell id="153" value="" style="edgeStyle=elbowEdgeStyle;elbow=horizontal;strokeWidth=2;rounded=0;exitX=0.5;exitY=1;exitDx=0;exitDy=0;entryX=0;entryY=0.5;entryDx=0;entryDy=0;" edge="1" parent="1" source="143" target="149">
                    <mxGeometry x="570" y="360" width="100" height="100" as="geometry">
                        <mxPoint x="1530" y="629.9999999999998" as="sourcePoint"/>
                        <mxPoint x="1560" y="700.0000000000002" as="targetPoint"/>
                        <Array as="points">
                            <mxPoint x="1537" y="665"/>
                            <mxPoint x="1550" y="810"/>
                        </Array>
                    </mxGeometry>
                </mxCell>
                <mxCell id="154" value="&lt;font style=&quot;font-size: 16px&quot;&gt;Imie, Nazwisko, tel&lt;/font&gt;" style="whiteSpace=wrap;html=1;fillColor=#dae8fc;strokeColor=#6c8ebf;" vertex="1" parent="1">
                    <mxGeometry x="1610" y="500" width="260" height="40" as="geometry"/>
                </mxCell>
                <mxCell id="155" value="Oznaczenie klienta jako problematyczny" style="rounded=1;fillColor=#23445D;gradientColor=none;strokeColor=none;fontColor=#FFFFFF;fontStyle=1;fontFamily=Tahoma;fontSize=14" vertex="1" parent="1">
                    <mxGeometry x="1580" y="734.5" width="320" height="60" as="geometry"/>
                </mxCell>
                <mxCell id="156" value="" style="edgeStyle=elbowEdgeStyle;elbow=horizontal;strokeWidth=2;rounded=0;exitX=0.5;exitY=1;exitDx=0;exitDy=0;entryX=0;entryY=0.5;entryDx=0;entryDy=0;" edge="1" parent="1" source="143" target="155">
                    <mxGeometry x="570" y="447.25" width="100" height="100" as="geometry">
                        <mxPoint x="1536.5000000000005" y="502.7499999999998" as="sourcePoint"/>
                        <mxPoint x="1580" y="797.25" as="targetPoint"/>
                        <Array as="points">
                            <mxPoint x="1537" y="752.25"/>
                            <mxPoint x="1550" y="897.25"/>
                        </Array>
                    </mxGeometry>
                </mxCell>
                <mxCell id="157" value="Wyświetlanie zysku z zlecenia" style="rounded=1;fillColor=#23445D;gradientColor=none;strokeColor=none;fontColor=#FFFFFF;fontStyle=1;fontFamily=Tahoma;fontSize=14" vertex="1" parent="1">
                    <mxGeometry x="1210" y="600" width="260" height="60" as="geometry"/>
                </mxCell>
                <mxCell id="158" value="" style="edgeStyle=elbowEdgeStyle;elbow=horizontal;strokeWidth=2;rounded=0;exitX=0.5;exitY=1;exitDx=0;exitDy=0;entryX=0;entryY=0.5;entryDx=0;entryDy=0;" edge="1" parent="1" source="131" target="157">
                    <mxGeometry x="136.5" y="155.5" width="100" height="100" as="geometry">
                        <mxPoint x="1195" y="510" as="sourcePoint"/>
                        <mxPoint x="1220" y="555.4999999999998" as="targetPoint"/>
                        <Array as="points">
                            <mxPoint x="1180" y="570"/>
                            <mxPoint x="1185" y="570"/>
                            <mxPoint x="1185" y="570"/>
                            <mxPoint x="1220" y="690"/>
                            <mxPoint x="1116.5" y="605.5"/>
                        </Array>
                    </mxGeometry>
                </mxCell>
                <mxCell id="159" value="&lt;span style=&quot;font-size: 16px&quot;&gt;wycena, informacja o produkcie,zaliczka, termin, klient&lt;/span&gt;" style="whiteSpace=wrap;html=1;fillColor=#dae8fc;strokeColor=#6c8ebf;" vertex="1" parent="1">
                    <mxGeometry x="260" y="490" width="260" height="40" as="geometry"/>
                </mxCell>
                <mxCell id="160" value="Dodanie Materiałów do listy" style="rounded=1;fillColor=#23445D;gradientColor=none;strokeColor=none;fontColor=#FFFFFF;fontStyle=1;fontFamily=Tahoma;fontSize=14" vertex="1" parent="1">
                    <mxGeometry x="820" y="610" width="290" height="60" as="geometry"/>
                </mxCell>
                <mxCell id="161" value="" style="edgeStyle=elbowEdgeStyle;elbow=horizontal;strokeWidth=2;rounded=0;exitX=0.25;exitY=1;exitDx=0;exitDy=0;entryX=0;entryY=0.5;entryDx=0;entryDy=0;" edge="1" parent="1" source="33" target="160">
                    <mxGeometry x="-80" y="190" width="100" height="100" as="geometry">
                        <mxPoint x="772.5" y="570" as="sourcePoint"/>
                        <mxPoint x="820" y="630" as="targetPoint"/>
                        <Array as="points">
                            <mxPoint x="770" y="630"/>
                        </Array>
                    </mxGeometry>
                </mxCell>
                <mxCell id="162" value="usunięcie materiałów z listy" style="rounded=1;fillColor=#23445D;gradientColor=none;strokeColor=none;fontColor=#FFFFFF;fontStyle=1;fontFamily=Tahoma;fontSize=14" vertex="1" parent="1">
                    <mxGeometry x="820" y="694.5" width="290" height="60" as="geometry"/>
                </mxCell>
                <mxCell id="163" value="" style="edgeStyle=elbowEdgeStyle;elbow=horizontal;strokeWidth=2;rounded=0;exitX=0.25;exitY=1;exitDx=0;exitDy=0;entryX=0;entryY=0.5;entryDx=0;entryDy=0;" edge="1" parent="1">
                    <mxGeometry x="-80" y="270" width="100" height="100" as="geometry">
                        <mxPoint x="772.5" y="580" as="sourcePoint"/>
                        <mxPoint x="820" y="720" as="targetPoint"/>
                        <Array as="points">
                            <mxPoint x="770" y="710"/>
                        </Array>
                    </mxGeometry>
                </mxCell>
                <mxCell id="167" value="Oznaczanie zaliczki jako zaplaconej" style="rounded=1;fillColor=#23445D;gradientColor=none;strokeColor=none;fontColor=#FFFFFF;fontStyle=1;fontFamily=Tahoma;fontSize=14" vertex="1" parent="1">
                    <mxGeometry x="236.5" y="1000" width="263" height="60" as="geometry"/>
                </mxCell>
                <mxCell id="168" value="" style="edgeStyle=elbowEdgeStyle;elbow=horizontal;strokeWidth=2;rounded=0;entryX=0;entryY=0.5;entryDx=0;entryDy=0;" edge="1" parent="1" target="167">
                    <mxGeometry x="-83.5" y="574.5" width="100" height="100" as="geometry">
                        <mxPoint x="201.50000000000023" y="559.9999999999998" as="sourcePoint"/>
                        <mxPoint x="236.5" y="926.75" as="targetPoint"/>
                        <Array as="points">
                            <mxPoint x="201.5" y="864.5"/>
                            <mxPoint x="201.5" y="964.5"/>
                            <mxPoint x="201.5" y="1044.5"/>
                            <mxPoint x="209.5" y="1079"/>
                            <mxPoint x="141.5" y="964.5"/>
                        </Array>
                    </mxGeometry>
                </mxCell>
                <mxCell id="169" value="Oznaczanie ceny jako zaplaconej" style="rounded=1;fillColor=#23445D;gradientColor=none;strokeColor=none;fontColor=#FFFFFF;fontStyle=1;fontFamily=Tahoma;fontSize=14" vertex="1" parent="1">
                    <mxGeometry x="235" y="1080" width="263" height="60" as="geometry"/>
                </mxCell>
                <mxCell id="170" value="" style="edgeStyle=elbowEdgeStyle;elbow=horizontal;strokeWidth=2;rounded=0;entryX=0;entryY=0.5;entryDx=0;entryDy=0;" edge="1" parent="1" target="169">
                    <mxGeometry x="-85" y="664.5" width="100" height="100" as="geometry">
                        <mxPoint x="200.00000000000023" y="649.9999999999995" as="sourcePoint"/>
                        <mxPoint x="235" y="1016.7499999999998" as="targetPoint"/>
                        <Array as="points">
                            <mxPoint x="200" y="954.5"/>
                            <mxPoint x="200" y="1054.5"/>
                            <mxPoint x="200" y="1134.5"/>
                            <mxPoint x="208" y="1169"/>
                            <mxPoint x="140" y="1054.5"/>
                        </Array>
                    </mxGeometry>
                </mxCell>
                <mxCell id="171" value="Terminarz" style="rounded=1;fillColor=#23445D;gradientColor=none;strokeColor=none;fontColor=#FFFFFF;fontStyle=1;fontFamily=Tahoma;fontSize=14" vertex="1" parent="1">
                    <mxGeometry x="235" y="740" width="263" height="60" as="geometry"/>
                </mxCell>
                <mxCell id="172" value="" style="edgeStyle=elbowEdgeStyle;elbow=horizontal;strokeWidth=2;rounded=0;entryX=0;entryY=0.5;entryDx=0;entryDy=0;" edge="1" parent="1">
                    <mxGeometry x="-23" y="220" width="100" height="100" as="geometry">
                        <mxPoint x="200" y="500" as="sourcePoint"/>
                        <mxPoint x="235" y="773.5" as="targetPoint"/>
                        <Array as="points">
                            <mxPoint x="200" y="764.5"/>
                            <mxPoint x="190" y="764.5"/>
                            <mxPoint x="220" y="834.5"/>
                            <mxPoint x="202" y="660"/>
                        </Array>
                    </mxGeometry>
                </mxCell>
                <mxCell id="173" value="Usunięcie listy zakupów" style="rounded=1;fillColor=#23445D;gradientColor=none;strokeColor=none;fontColor=#FFFFFF;fontStyle=1;fontFamily=Tahoma;fontSize=14" vertex="1" parent="1">
                    <mxGeometry x="730" y="780" width="210" height="60" as="geometry"/>
                </mxCell>
                <mxCell id="174" value="" style="edgeStyle=elbowEdgeStyle;elbow=vertical;strokeWidth=2;rounded=0;entryX=0;entryY=0.5;entryDx=0;entryDy=0;exitX=0.5;exitY=1;exitDx=0;exitDy=0;" edge="1" parent="1" source="12" target="173">
                    <mxGeometry x="-13" y="145.5" width="100" height="100" as="geometry">
                        <mxPoint x="640" y="590" as="sourcePoint"/>
                        <mxPoint x="730" y="479.9999999999998" as="targetPoint"/>
                        <Array as="points">
                            <mxPoint x="695" y="810"/>
                            <mxPoint x="710" y="480"/>
                            <mxPoint x="705" y="480"/>
                        </Array>
                    </mxGeometry>
                </mxCell>
            </root>
        </mxGraphModel>
    </diagram>
</mxfile>